<svg xmlns="http://www.w3.org/2000/svg" width="1440" height="1080" viewBox="0 0 1440 1080" preserveAspectRatio="xMidYMid slice">
<rect width="1440" height="1080" fill="#f3ecdd"/>
<path d="M 1105.2 -49.0 C 1107.0 -13.7 1081.2 32.8 1054.1 62.1 C 1027.1 91.3 974.2 132.4 943.1 126.4 C 912.0 120.5 890.1 55.8 867.6 26.5 C 845.0 -2.7 807.2 -24.4 807.7 -49.0 C 808.3 -73.6 848.4 -101.4 871.0 -121.1 C 893.6 -140.7 914.3 -162.2 943.1 -167.0 C 971.9 -171.8 1016.8 -169.4 1043.8 -149.7 C 1070.8 -130.0 1103.5 -84.3 1105.2 -49.0 Z" fill="#ccff00"/>
<path d="M 105.6 166.6 C 109.1 199.5 122.4 240.7 109.1 273.1 C 95.7 305.4 56.1 359.1 25.5 360.5 C -5.2 361.9 -37.0 294.1 -75.0 281.7 C -112.9 269.3 -176.4 305.4 -202.2 286.2 C -228.1 267.0 -236.5 201.7 -230.0 166.6 C -223.5 131.4 -188.4 96.8 -163.3 75.2 C -138.3 53.5 -112.0 56.3 -79.7 36.8 C -47.4 17.3 2.2 -48.3 30.2 -41.9 C 58.1 -35.5 75.4 40.6 88.0 75.4 C 100.5 110.1 102.1 133.6 105.6 166.6 Z" fill="#ffc4dd"/>
<path d="M 290.8 39.9 C 288.9 87.3 263.6 145.8 232.1 177.3 C 200.6 208.8 149.1 217.0 101.7 228.9 C 54.3 240.8 -19.3 270.3 -52.2 248.7 C -85.0 227.2 -85.0 145.3 -95.2 99.5 C -105.5 53.6 -122.1 16.1 -113.6 -26.3 C -105.1 -68.7 -80.2 -132.9 -44.1 -154.9 C -7.9 -176.8 55.4 -166.1 103.3 -158.2 C 151.2 -150.2 212.2 -140.0 243.5 -107.0 C 274.7 -74.0 292.7 -7.4 290.8 39.9 Z" fill="#ff5a1e"/>
<path d="M 1003.4 793.7 C 1005.2 824.3 980.9 865.3 958.7 890.1 C 936.4 914.9 898.7 941.7 870.0 942.2 C 841.2 942.7 809.6 911.0 786.4 893.1 C 763.2 875.2 744.5 859.8 730.8 834.8 C 717.1 809.8 693.7 764.0 704.3 742.9 C 714.9 721.8 767.9 718.3 794.4 708.2 C 821.0 698.2 837.8 682.8 863.4 682.5 C 889.0 682.1 924.8 687.5 948.2 706.1 C 971.5 724.6 1001.7 763.0 1003.4 793.7 Z" fill="#ccff00"/>
<path d="M 1143.2 767.6 C 1139.7 798.6 1142.1 823.0 1125.4 850.1 C 1108.7 877.2 1072.7 927.9 1042.9 930.2 C 1013.1 932.6 968.2 891.1 946.6 864.0 C 924.9 836.9 913.3 800.1 912.9 767.6 C 912.5 735.1 922.5 694.1 944.2 668.9 C 965.8 643.6 1009.2 616.8 1042.9 616.0 C 1076.6 615.2 1129.8 638.7 1146.5 664.0 C 1163.2 689.2 1146.8 736.6 1143.2 767.6 Z" fill="#ff2e6e"/>
<path d="M 406.5 -40.2 C 406.8 7.4 427.7 74.6 401.1 103.5 C 374.5 132.5 285.3 148.0 246.9 133.4 C 208.4 118.8 187.4 56.2 170.2 15.8 C 152.9 -24.6 129.1 -77.6 143.4 -109.1 C 157.8 -140.5 213.5 -160.8 256.2 -172.9 C 298.9 -185.1 374.5 -204.1 399.6 -182.0 C 424.6 -159.9 406.3 -87.8 406.5 -40.2 Z" fill="#8fefc9"/>
<path d="M 814.6 248.5 C 810.0 281.0 779.1 310.3 756.6 334.4 C 734.1 358.5 707.4 388.8 679.6 393.0 C 651.9 397.1 622.7 373.2 590.1 359.4 C 557.4 345.7 490.1 335.2 483.7 310.5 C 477.2 285.8 534.5 241.5 551.4 211.0 C 568.2 180.6 562.8 148.1 584.6 127.9 C 606.4 107.7 648.8 87.8 682.2 89.7 C 715.5 91.6 762.3 112.7 784.4 139.2 C 806.5 165.6 819.2 215.9 814.6 248.5 Z" fill="#ffc4dd"/>
<path d="M 326.9 118.4 C 326.0 167.6 313.0 234.8 279.6 262.6 C 246.2 290.4 167.9 298.5 126.5 285.2 C 85.0 271.9 51.5 223.6 30.8 182.8 C 10.1 142.0 -11.7 86.9 2.4 40.3 C 16.5 -6.3 68.3 -84.7 115.4 -96.8 C 162.5 -109.0 249.8 -68.6 285.1 -32.8 C 320.3 3.1 327.8 69.2 326.9 118.4 Z" fill="#ff5a1e"/>
<path d="M 261.0 1017.1 C 254.3 1062.9 223.5 1108.5 192.5 1129.0 C 161.5 1149.6 120.7 1144.3 75.2 1140.4 C 29.6 1136.5 -54.7 1141.0 -80.6 1105.7 C -106.5 1070.4 -102.4 981.0 -80.3 928.7 C -58.3 876.4 -0.4 804.3 51.9 791.9 C 104.1 779.5 198.3 816.7 233.2 854.2 C 268.1 891.8 267.8 971.3 261.0 1017.1 Z" fill="#ff2e6e"/>
<path d="M 866.9 51.9 C 875.8 89.4 893.9 162.1 871.5 191.1 C 849.0 220.1 778.9 225.8 732.3 226.0 C 685.7 226.2 620.8 221.3 592.0 192.3 C 563.1 163.3 549.8 89.4 559.2 51.9 C 568.5 14.5 619.2 -6.9 648.1 -32.2 C 676.9 -57.6 704.0 -99.9 732.3 -100.1 C 760.6 -100.4 795.4 -59.0 817.9 -33.6 C 840.3 -8.3 858.0 14.5 866.9 51.9 Z" fill="#ffc4dd"/>
<path d="M 1543.6 1009.6 C 1545.1 1062.1 1591.2 1132.0 1568.4 1171.4 C 1545.5 1210.9 1450.0 1256.6 1406.6 1246.2 C 1363.1 1235.7 1338.3 1148.1 1307.4 1108.7 C 1276.6 1069.3 1221.4 1042.4 1221.6 1009.6 C 1221.8 976.8 1277.9 947.8 1308.8 911.8 C 1339.6 875.9 1364.8 803.1 1406.6 793.9 C 1448.3 784.7 1536.7 820.7 1559.5 856.7 C 1582.3 892.6 1542.1 957.2 1543.6 1009.6 Z" fill="#ff2e6e"/>
<path d="M 335.1 509.4 C 341.4 545.1 317.4 600.6 292.2 630.5 C 267.0 660.5 221.1 680.4 183.9 689.2 C 146.7 698.0 103.7 694.9 69.0 683.1 C 34.3 671.2 -7.9 647.0 -24.2 618.1 C -40.5 589.1 -29.2 545.2 -28.6 509.4 C -28.1 473.5 -38.8 427.1 -20.9 403.0 C -3.0 379.0 43.7 379.7 78.6 365.2 C 113.5 350.7 159.0 307.6 188.3 316.0 C 217.5 324.4 229.8 383.5 254.2 415.8 C 278.7 448.0 328.8 473.6 335.1 509.4 Z" fill="#8fefc9"/>
<path d="M 444.8 -0.6 C 440.4 24.0 398.6 37.2 377.3 60.0 C 355.9 82.8 337.3 135.8 316.6 136.2 C 296.0 136.7 268.4 85.5 253.4 62.7 C 238.4 39.9 226.3 20.2 226.6 -0.6 C 226.8 -21.5 239.8 -44.2 254.8 -62.5 C 269.8 -80.7 291.9 -105.8 316.6 -109.9 C 341.4 -114.1 382.1 -105.6 403.4 -87.4 C 424.8 -69.2 449.2 -25.2 444.8 -0.6 Z" fill="#ffc4dd"/>
<path d="M 503.5 521.9 C 501.2 555.1 510.5 591.8 495.4 616.2 C 480.3 640.7 441.2 664.6 413.2 668.4 C 385.2 672.3 359.5 646.2 327.4 639.3 C 295.4 632.4 239.4 646.5 221.0 627.0 C 202.5 607.4 213.4 554.5 216.7 521.9 C 220.0 489.3 226.0 462.6 240.6 431.1 C 255.2 399.6 277.2 336.7 304.1 332.9 C 331.1 329.1 368.2 394.2 402.5 408.3 C 436.7 422.3 492.9 398.3 509.7 417.2 C 526.5 436.1 505.9 488.7 503.5 521.9 Z" fill="#ff5a1e"/>
<path d="M 1099.2 -4.8 C 1095.7 41.5 1106.9 100.7 1082.7 124.0 C 1058.5 147.2 992.4 139.4 953.9 134.9 C 915.4 130.5 880.8 120.6 851.8 97.3 C 822.7 74.0 788.3 37.9 779.6 -4.8 C 770.9 -47.6 770.5 -137.1 799.5 -159.2 C 828.6 -181.3 903.3 -138.5 953.9 -137.7 C 1004.5 -136.8 1079.0 -176.3 1103.2 -154.2 C 1127.4 -132.0 1102.6 -51.2 1099.2 -4.8 Z" fill="#3b2bf0"/>
<path d="M 1510.2 41.4 C 1515.8 90.7 1468.8 176.6 1424.4 210.5 C 1379.9 244.3 1286.4 262.6 1243.2 244.4 C 1200.1 226.2 1183.4 147.3 1165.5 101.2 C 1147.6 55.0 1120.4 0.5 1135.8 -32.7 C 1151.2 -65.8 1215.4 -88.9 1257.8 -97.6 C 1300.3 -106.4 1348.5 -108.4 1390.5 -85.2 C 1432.6 -62.0 1504.5 -7.9 1510.2 41.4 Z" fill="#ffc4dd"/>
<path d="M 137.1 389.9 C 136.4 424.1 164.6 463.2 153.2 491.2 C 141.7 519.1 100.9 545.5 68.3 557.6 C 35.7 569.6 -10.9 575.0 -42.6 563.6 C -74.3 552.1 -107.0 517.7 -122.2 488.7 C -137.3 459.8 -141.0 417.4 -133.4 389.9 C -125.8 362.5 -95.3 342.4 -76.7 324.2 C -58.1 305.9 -41.8 284.6 -21.8 280.4 C -1.7 276.1 13.8 297.4 43.6 298.4 C 73.3 299.3 141.3 270.7 156.9 286.0 C 172.5 301.2 137.7 355.7 137.1 389.9 Z" fill="#ff2e6e"/>
<path d="M 65.3 308.9 C 62.3 329.5 78.2 345.7 70.2 361.5 C 62.2 377.3 32.0 406.7 17.5 403.7 C 3.0 400.6 -8.7 358.9 -16.7 343.1 C -24.8 327.3 -25.4 325.8 -30.9 308.9 C -36.4 291.9 -58.0 252.8 -50.0 241.4 C -41.9 230.0 -5.5 241.1 17.5 240.6 C 40.6 240.0 80.4 226.7 88.4 238.0 C 96.3 249.4 68.3 288.3 65.3 308.9 Z" fill="#ff5a1e"/>
<path d="M 913.9 637.9 C 914.7 652.3 904.3 673.2 893.8 683.1 C 883.3 693.0 864.2 695.4 850.8 697.2 C 837.3 699.1 827.6 695.9 813.2 694.1 C 798.8 692.4 771.6 696.1 764.2 686.7 C 756.9 677.3 766.0 651.8 769.2 637.9 C 772.4 623.9 775.7 611.1 783.4 602.9 C 791.1 594.7 803.3 595.9 815.5 588.8 C 827.8 581.7 844.5 558.9 856.7 560.2 C 868.9 561.4 879.1 583.4 888.7 596.3 C 898.2 609.3 913.0 623.4 913.9 637.9 Z" fill="#3b2bf0"/>
<path d="M 1453.0 1080.3 C 1452.1 1095.7 1450.3 1113.6 1440.4 1122.9 C 1430.5 1132.3 1413.6 1136.5 1393.6 1136.3 C 1373.7 1136.1 1332.3 1137.7 1320.6 1121.6 C 1308.9 1105.6 1312.4 1062.1 1323.3 1040.3 C 1334.2 1018.4 1365.5 992.0 1385.9 990.4 C 1406.4 988.8 1434.7 1015.8 1445.9 1030.8 C 1457.1 1045.8 1453.9 1065.0 1453.0 1080.3 Z" fill="#ffc4dd"/>
<path d="M 315.6 953.8 C 312.1 992.6 284.7 1029.3 254.6 1056.9 C 224.4 1084.5 161.2 1130.4 134.6 1119.5 C 107.9 1108.5 113.1 1030.8 94.7 991.3 C 76.3 951.8 15.1 905.4 24.2 882.5 C 33.3 859.6 107.7 863.6 149.6 853.9 C 191.5 844.2 248.0 807.7 275.7 824.3 C 303.4 841.0 319.2 915.1 315.6 953.8 Z" fill="#ff5a1e"/>
<path d="M 1178.5 112.8 C 1181.8 131.9 1196.0 166.3 1186.4 178.6 C 1176.8 190.9 1141.6 184.4 1120.9 186.7 C 1100.2 188.9 1083.4 197.5 1062.0 192.2 C 1040.7 186.8 1003.6 174.6 992.7 154.7 C 981.8 134.7 982.8 88.3 996.8 72.3 C 1010.8 56.4 1055.7 66.3 1076.7 58.8 C 1097.7 51.2 1108.1 26.3 1123.0 27.2 C 1137.9 28.1 1156.8 49.6 1166.1 63.9 C 1175.3 78.2 1175.1 93.6 1178.5 112.8 Z" fill="#ccff00"/>
<path d="M 70.0 876.2 C 70.1 905.8 38.8 946.3 14.7 965.3 C -9.3 984.3 -50.8 996.3 -74.3 990.2 C -97.8 984.0 -113.0 947.2 -126.3 928.2 C -139.6 909.2 -144.2 903.5 -154.2 876.2 C -164.2 848.9 -199.4 791.1 -186.1 764.4 C -172.8 737.8 -107.7 712.3 -74.3 716.1 C -40.9 720.0 -9.7 760.9 14.3 787.5 C 38.4 814.2 69.9 846.6 70.0 876.2 Z" fill="#8fefc9"/>
<path d="M 1324.6 642.3 C 1329.1 664.9 1338.0 710.3 1322.7 726.7 C 1307.4 743.2 1259.9 747.5 1232.8 741.0 C 1205.8 734.6 1172.8 712.3 1160.3 688.1 C 1147.9 663.8 1144.6 613.3 1158.1 595.5 C 1171.6 577.6 1218.3 581.7 1241.4 581.0 C 1264.4 580.3 1282.3 580.9 1296.2 591.1 C 1310.0 601.4 1320.2 619.7 1324.6 642.3 Z" fill="#ccff00"/>
<path d="M 273.1 887.3 C 264.0 922.7 194.5 948.8 163.0 965.9 C 131.6 983.0 118.1 982.6 84.5 990.1 C 50.8 997.5 -21.5 1027.9 -38.9 1010.7 C -56.3 993.6 -25.0 923.3 -19.9 887.3 C -14.8 851.4 -25.5 812.3 -8.1 794.8 C 9.3 777.4 46.8 789.5 84.5 782.7 C 122.1 775.9 186.3 736.6 217.8 754.0 C 249.2 771.5 282.3 852.0 273.1 887.3 Z" fill="#ff5a1e"/>
<path d="M 1261.7 430.5 C 1260.2 462.5 1293.5 504.4 1281.7 522.8 C 1270.0 541.1 1216.1 544.9 1191.3 540.8 C 1166.4 536.7 1155.0 509.6 1132.8 498.1 C 1110.7 486.6 1066.6 488.4 1058.4 471.8 C 1050.2 455.2 1078.4 429.1 1083.6 398.4 C 1088.7 367.7 1071.5 300.2 1089.3 287.7 C 1107.2 275.2 1157.1 316.3 1190.7 323.4 C 1224.3 330.6 1278.9 312.9 1290.8 330.7 C 1302.6 348.6 1263.2 398.5 1261.7 430.5 Z" fill="#ccff00"/>
<path d="M 1415.2 196.4 C 1415.7 213.2 1388.3 223.6 1375.8 248.2 C 1363.3 272.7 1359.4 336.8 1340.1 343.8 C 1320.8 350.8 1283.7 307.6 1260.0 290.1 C 1236.3 272.6 1210.8 262.4 1197.9 238.7 C 1184.9 215.1 1175.8 178.0 1182.1 148.4 C 1188.5 118.7 1210.8 70.3 1235.8 60.8 C 1260.9 51.4 1309.8 77.4 1332.6 91.8 C 1355.4 106.2 1358.9 129.9 1372.6 147.3 C 1386.4 164.8 1414.6 179.6 1415.2 196.4 Z" fill="#ff5a1e"/>
<path d="M 1403.2 243.9 C 1403.7 272.1 1410.5 307.8 1392.1 330.2 C 1373.6 352.6 1319.0 385.4 1292.6 378.2 C 1266.3 371.0 1247.8 318.4 1234.0 286.9 C 1220.1 255.4 1198.9 215.3 1209.4 189.1 C 1220.0 162.8 1267.2 134.0 1297.1 129.3 C 1327.1 124.7 1371.5 142.1 1389.2 161.2 C 1406.9 180.3 1402.8 215.7 1403.2 243.9 Z" fill="#ff2e6e"/>
<path d="M 955.5 235.9 C 952.7 258.2 920.1 270.7 901.3 294.6 C 882.5 318.5 865.2 376.1 842.5 379.2 C 819.8 382.3 783.1 337.2 765.1 313.3 C 747.1 289.4 740.9 267.8 734.7 235.9 C 728.5 203.9 710.0 146.1 728.0 121.3 C 746.0 96.5 810.9 80.3 842.5 86.9 C 874.2 93.4 899.0 135.7 917.8 160.6 C 936.6 185.4 958.2 213.5 955.5 235.9 Z" fill="#3b2bf0"/>
<path d="M 491.9 426.4 C 490.2 455.3 509.5 492.8 496.7 508.2 C 483.8 523.6 442.9 517.9 414.9 518.7 C 386.8 519.5 340.8 528.4 328.3 513.0 C 315.7 497.6 337.6 453.6 339.3 426.4 C 341.0 399.3 326.0 365.9 338.6 350.2 C 351.2 334.4 386.9 334.4 414.9 331.9 C 442.8 329.3 493.6 319.1 506.4 334.9 C 519.2 350.6 493.5 397.5 491.9 426.4 Z" fill="#8fefc9"/>
<path d="M 535.3 180.6 C 534.3 208.6 521.8 245.3 503.3 262.1 C 484.7 278.9 451.0 276.3 424.0 281.5 C 397.0 286.7 371.6 300.0 341.2 293.2 C 310.7 286.4 256.2 268.8 241.3 240.7 C 226.4 212.5 232.4 148.5 251.8 124.4 C 271.1 100.3 329.0 101.2 357.3 96.0 C 385.6 90.8 396.3 93.5 421.6 93.2 C 446.9 92.9 490.3 79.6 509.2 94.2 C 528.2 108.7 536.3 152.6 535.3 180.6 Z" fill="#ffc4dd"/>
<path d="M 1038.3 335.6 C 1032.4 362.7 1026.7 388.0 1011.5 401.8 C 996.3 415.5 969.4 413.7 947.3 418.3 C 925.2 422.8 902.0 435.2 878.8 429.0 C 855.6 422.8 826.1 406.5 807.9 381.0 C 789.8 355.6 756.4 296.8 769.8 276.3 C 783.1 255.9 857.3 269.2 888.1 258.4 C 918.9 247.6 928.1 214.5 954.6 211.3 C 981.1 208.2 1033.3 218.8 1047.3 239.5 C 1061.2 260.2 1044.3 308.6 1038.3 335.6 Z" fill="#ccff00"/>
<path d="M 354.3 783.5 C 344.5 808.9 298.5 808.4 277.9 830.3 C 257.4 852.2 254.6 907.1 231.1 915.0 C 207.6 922.9 149.4 899.6 136.9 877.7 C 124.4 855.8 152.5 811.3 156.0 783.5 C 159.6 755.6 145.8 724.2 158.3 710.7 C 170.8 697.1 201.3 707.8 231.1 702.3 C 260.9 696.8 316.4 664.1 336.9 677.6 C 357.5 691.2 364.2 758.0 354.3 783.5 Z" fill="#ff2e6e"/>
<path d="M 812.3 -17.7 C 812.7 -0.9 825.3 19.0 819.4 33.6 C 813.6 48.2 793.9 63.6 777.2 69.9 C 760.6 76.3 734.7 78.9 719.6 71.8 C 704.5 64.7 699.8 42.3 686.6 27.4 C 673.4 12.5 641.6 -1.8 640.4 -17.7 C 639.2 -33.7 667.1 -50.3 679.3 -68.2 C 691.6 -86.0 696.3 -114.5 713.9 -124.8 C 731.6 -135.1 768.0 -139.6 785.2 -130.1 C 802.5 -120.5 812.7 -86.2 817.2 -67.5 C 821.7 -48.8 811.9 -34.6 812.3 -17.7 Z" fill="#3b2bf0"/>
<path d="M 1437.8 472.9 C 1437.5 486.0 1430.8 497.2 1424.4 511.7 C 1418.0 526.3 1413.4 550.8 1399.3 560.3 C 1385.3 569.7 1356.0 574.7 1340.0 568.3 C 1323.9 562.0 1312.9 538.3 1302.9 522.4 C 1292.9 506.5 1277.6 487.8 1279.8 472.9 C 1282.0 458.0 1303.7 441.8 1316.1 433.1 C 1328.5 424.4 1341.4 425.1 1354.0 420.8 C 1366.7 416.6 1380.2 405.7 1392.2 407.7 C 1404.1 409.8 1418.1 422.3 1425.7 433.2 C 1433.3 444.1 1438.0 459.8 1437.8 472.9 Z" fill="#ff5a1e"/>
<path d="M 525.2 589.8 C 526.3 607.5 520.8 636.9 508.0 645.3 C 495.1 653.7 464.5 637.4 447.9 640.0 C 431.3 642.7 422.4 661.3 408.3 661.2 C 394.3 661.0 372.4 651.0 363.7 639.1 C 355.0 627.2 353.0 604.1 355.9 589.8 C 358.9 575.5 372.6 565.3 381.3 553.3 C 390.0 541.3 394.2 528.5 408.1 517.6 C 422.0 506.7 449.1 484.2 464.7 487.7 C 480.3 491.3 491.5 521.9 501.5 538.9 C 511.6 555.9 524.1 572.1 525.2 589.8 Z" fill="#ccff00"/>
<path d="M 1112.2 982.3 C 1114.1 1003.7 1131.5 1025.3 1126.4 1050.3 C 1121.3 1075.4 1105.9 1117.1 1081.6 1132.5 C 1057.3 1147.8 1013.1 1150.0 980.8 1142.5 C 948.6 1135.0 899.9 1114.2 888.1 1087.5 C 876.4 1060.8 907.2 1015.3 910.1 982.3 C 913.0 949.4 892.2 911.5 905.6 889.9 C 919.1 868.4 962.3 860.0 990.8 852.9 C 1019.3 845.8 1056.0 835.6 1076.7 847.2 C 1097.5 858.8 1109.4 899.9 1115.3 922.4 C 1121.2 945.0 1110.3 961.0 1112.2 982.3 Z" fill="#ff5a1e"/>
<path d="M 356.4 460.4 C 359.6 476.1 354.8 499.2 345.5 514.5 C 336.3 529.8 318.5 545.4 300.9 552.3 C 283.4 559.2 255.1 563.7 240.1 555.7 C 225.1 547.6 221.8 520.0 211.0 504.1 C 200.1 488.2 175.7 475.3 175.2 460.4 C 174.8 445.6 196.5 427.8 208.3 414.8 C 220.0 401.8 232.9 382.7 245.8 382.7 C 258.8 382.6 272.6 408.3 286.0 414.5 C 299.4 420.8 314.5 412.7 326.2 420.4 C 338.0 428.0 353.2 444.7 356.4 460.4 Z" fill="#ff2e6e"/>
<path d="M 1394.5 145.3 C 1393.3 165.1 1377.4 181.5 1362.8 201.2 C 1348.2 220.9 1325.1 264.2 1307.0 263.7 C 1288.8 263.2 1274.7 217.9 1254.1 198.2 C 1233.5 178.4 1184.6 164.2 1183.4 145.3 C 1182.1 126.5 1226.2 104.3 1246.8 85.2 C 1267.4 66.0 1286.5 30.6 1307.0 30.2 C 1327.4 29.8 1355.1 63.5 1369.7 82.7 C 1384.2 101.8 1395.6 125.6 1394.5 145.3 Z" fill="#8fefc9"/>
<path d="M 1297.5 -15.4 C 1303.5 19.7 1257.0 84.1 1220.6 112.7 C 1184.3 141.3 1126.2 163.0 1079.3 156.1 C 1032.4 149.1 949.5 107.4 939.4 70.8 C 929.2 34.2 991.9 -34.6 1018.4 -63.6 C 1044.9 -92.6 1070.8 -97.5 1098.4 -103.2 C 1126.0 -109.0 1151.0 -112.5 1184.2 -97.9 C 1217.4 -83.3 1291.4 -50.5 1297.5 -15.4 Z" fill="#ccff00"/>
<path d="M 255.4 750.1 C 264.6 770.8 252.9 818.8 235.0 832.2 C 217.1 845.6 173.3 824.4 148.1 830.5 C 122.8 836.6 106.3 868.9 83.3 869.0 C 60.4 869.1 17.2 851.0 10.3 831.2 C 3.5 811.4 43.2 777.8 42.3 750.1 C 41.4 722.5 -0.1 690.2 5.0 665.2 C 10.2 640.1 49.6 598.3 73.2 599.9 C 96.7 601.6 128.6 656.9 146.4 675.0 C 164.1 693.0 161.6 695.6 179.7 708.1 C 197.9 720.7 246.2 729.4 255.4 750.1 Z" fill="#ff2e6e"/>
<path d="M 516.0 759.9 C 523.9 791.9 554.8 852.5 538.6 879.4 C 522.5 906.4 450.8 929.6 419.1 921.5 C 387.4 913.4 378.2 857.5 348.5 830.6 C 318.7 803.7 250.9 793.8 240.5 759.9 C 230.2 726.0 256.6 653.6 286.4 627.2 C 316.1 600.7 385.0 591.4 419.1 601.5 C 453.3 611.6 475.2 661.2 491.4 687.6 C 507.5 714.1 508.2 727.9 516.0 759.9 Z" fill="#ff5a1e"/>
<path d="M 1522.7 890.5 C 1523.8 901.1 1539.4 920.8 1535.4 925.0 C 1531.3 929.3 1509.2 915.6 1498.7 916.2 C 1488.2 916.8 1480.3 930.1 1472.2 928.5 C 1464.1 926.9 1453.4 915.4 1450.0 906.5 C 1446.7 897.7 1448.5 883.9 1452.4 875.3 C 1456.3 866.6 1464.6 862.7 1473.5 854.7 C 1482.3 846.6 1496.1 825.9 1505.3 827.0 C 1514.6 828.1 1526.2 850.6 1529.1 861.2 C 1532.0 871.7 1521.7 879.8 1522.7 890.5 Z" fill="#8fefc9"/>
<path d="M 219.1 138.4 C 220.8 151.4 229.7 171.6 223.8 181.3 C 217.8 190.9 195.8 196.0 183.6 196.3 C 171.3 196.6 159.2 188.5 150.3 183.0 C 141.4 177.6 140.7 171.1 130.0 163.7 C 119.4 156.2 86.5 147.0 86.3 138.4 C 86.0 129.8 118.3 120.6 128.6 112.1 C 139.0 103.7 138.7 94.0 148.2 87.5 C 157.8 80.9 175.3 70.1 186.1 72.8 C 196.9 75.4 207.6 92.4 213.1 103.3 C 218.6 114.3 217.3 125.4 219.1 138.4 Z" fill="#ff2e6e"/>
<path d="M 1043.2 337.1 C 1042.2 349.3 1031.6 363.6 1022.6 370.7 C 1013.6 377.7 999.8 380.1 989.1 379.7 C 978.4 379.2 968.2 375.1 958.3 368.0 C 948.3 360.9 933.1 351.0 929.5 337.1 C 926.0 323.3 927.0 294.5 936.9 284.9 C 946.8 275.3 973.9 277.5 989.1 279.6 C 1004.4 281.8 1019.4 288.3 1028.4 297.9 C 1037.4 307.4 1044.2 325.0 1043.2 337.1 Z" fill="#8fefc9"/>
<path d="M 284.8 219.3 C 286.7 230.9 275.9 251.3 266.0 259.6 C 256.2 268.0 239.9 268.4 225.7 269.2 C 211.4 270.0 185.8 272.8 180.5 264.5 C 175.3 256.1 191.1 231.2 194.2 219.3 C 197.3 207.3 194.0 202.7 199.2 192.8 C 204.5 182.9 216.4 160.5 225.7 160.1 C 235.0 159.6 245.1 180.2 254.9 190.0 C 264.8 199.9 283.0 207.7 284.8 219.3 Z" fill="#ffc4dd"/>
<path d="M 899.3 506.8 C 897.8 519.8 898.8 534.0 892.0 541.6 C 885.2 549.3 869.0 552.3 858.6 552.6 C 848.1 553.0 841.2 547.4 829.2 543.7 C 817.2 539.9 790.3 538.9 786.5 530.1 C 782.7 521.3 801.5 504.6 806.4 490.8 C 811.3 476.9 806.2 457.4 815.9 446.9 C 825.6 436.5 850.1 425.2 864.4 428.1 C 878.6 430.9 895.6 451.0 901.4 464.1 C 907.2 477.3 900.9 493.9 899.3 506.8 Z" fill="#8fefc9"/>
<path d="M 289.7 835.9 C 293.7 844.8 279.8 866.8 270.3 872.7 C 260.8 878.5 243.1 871.6 232.6 870.9 C 222.2 870.3 214.0 872.8 207.4 869.0 C 200.7 865.2 197.8 856.6 192.8 848.1 C 187.8 839.6 174.2 824.2 177.4 818.0 C 180.6 811.8 203.2 812.2 212.1 811.0 C 221.0 809.7 225.2 809.4 230.9 810.8 C 236.6 812.1 236.5 815.1 246.3 819.2 C 256.1 823.4 285.7 827.0 289.7 835.9 Z" fill="#ffc4dd"/>
<path d="M 470.5 1090.7 C 468.4 1110.6 444.7 1132.6 428.6 1142.4 C 412.6 1152.1 389.7 1153.7 374.0 1149.3 C 358.4 1144.9 339.1 1129.0 334.7 1116.1 C 330.3 1103.1 340.4 1081.8 347.8 1071.6 C 355.3 1061.5 363.7 1063.4 379.3 1055.2 C 395.0 1047.1 426.5 1016.7 441.7 1022.6 C 456.9 1028.6 472.7 1070.7 470.5 1090.7 Z" fill="#8fefc9"/>
<path d="M 718.4 939.4 C 720.3 953.8 732.8 978.3 724.5 989.7 C 716.2 1001.2 680.0 1014.5 668.6 1008.4 C 657.3 1002.2 659.6 967.1 656.5 952.8 C 653.3 938.6 647.0 933.5 649.7 922.7 C 652.4 911.9 662.1 891.3 672.6 888.0 C 683.2 884.8 705.5 894.8 713.2 903.3 C 720.8 911.9 716.5 925.0 718.4 939.4 Z" fill="#3b2bf0"/>
<path d="M 968.4 686.8 C 965.6 699.8 931.0 707.9 919.1 719.7 C 907.1 731.5 907.6 752.9 896.8 757.6 C 885.9 762.3 867.6 752.6 853.9 748.0 C 840.2 743.3 818.2 740.0 814.6 729.8 C 811.1 719.6 836.2 703.6 832.8 686.8 C 829.5 670.1 790.0 636.2 794.6 629.3 C 799.2 622.4 842.8 649.5 860.4 645.5 C 878.0 641.6 887.6 606.2 900.2 605.6 C 912.8 605.0 924.5 628.2 935.9 641.7 C 947.3 655.3 971.2 673.8 968.4 686.8 Z" fill="#ff5a1e"/>
<path d="M 372.2 20.7 C 372.7 30.1 374.0 42.7 367.4 50.7 C 360.8 58.8 342.6 70.8 332.5 68.7 C 322.3 66.7 308.4 48.1 306.6 38.4 C 304.9 28.6 317.0 18.7 321.9 10.3 C 326.7 1.8 328.8 -9.6 335.9 -12.3 C 343.0 -14.9 358.3 -11.1 364.4 -5.6 C 370.4 -0.1 371.7 11.3 372.2 20.7 Z" fill="#ffc4dd"/>
<path d="M 1334.2 8.3 C 1335.2 17.4 1332.5 31.0 1326.0 38.9 C 1319.6 46.8 1307.2 54.0 1295.4 55.6 C 1283.5 57.2 1263.9 56.7 1254.8 48.8 C 1245.8 40.9 1237.4 18.0 1241.2 8.3 C 1245.0 -1.5 1268.5 -4.8 1277.5 -9.6 C 1286.6 -14.4 1288.4 -19.5 1295.4 -20.6 C 1302.4 -21.7 1313.2 -20.8 1319.6 -16.0 C 1326.1 -11.2 1333.1 -0.9 1334.2 8.3 Z" fill="#ff2e6e"/>
<path d="M 1170.5 625.8 C 1173.0 634.3 1166.4 646.8 1160.9 656.7 C 1155.4 666.6 1147.0 683.4 1137.7 685.3 C 1128.3 687.2 1113.8 673.7 1104.6 668.1 C 1095.4 662.5 1084.8 658.8 1082.6 651.8 C 1080.3 644.7 1088.5 632.7 1091.1 625.8 C 1093.6 619.0 1095.2 617.4 1097.6 610.8 C 1100.0 604.2 1100.1 589.6 1105.5 586.2 C 1110.8 582.8 1123.1 587.2 1129.8 590.5 C 1136.6 593.7 1139.2 599.8 1146.0 605.7 C 1152.8 611.6 1168.0 617.3 1170.5 625.8 Z" fill="#3b2bf0"/>
<path d="M 170.9 1112.8 C 171.1 1134.3 137.5 1168.6 118.0 1177.8 C 98.4 1187.0 68.4 1175.8 53.5 1167.9 C 38.7 1160.1 40.0 1146.4 28.8 1130.7 C 17.6 1115.1 -17.4 1088.6 -13.8 1074.3 C -10.2 1059.9 28.8 1048.9 50.6 1044.7 C 72.4 1040.4 97.1 1037.5 117.1 1048.8 C 137.2 1060.2 170.8 1091.3 170.9 1112.8 Z" fill="#ffc4dd"/>
<path d="M 1443.3 145.0 C 1442.9 159.8 1431.0 179.4 1419.6 187.5 C 1408.1 195.5 1386.0 197.7 1374.7 193.3 C 1363.4 189.0 1356.0 172.4 1351.7 161.4 C 1347.5 150.4 1345.3 138.9 1349.0 127.4 C 1352.6 115.8 1361.3 96.7 1373.6 92.0 C 1385.9 87.2 1410.9 90.1 1422.5 98.9 C 1434.1 107.8 1443.8 130.3 1443.3 145.0 Z" fill="#8fefc9"/>
<path d="M 1022.4 416.6 C 1024.1 425.6 1027.4 440.5 1022.6 447.4 C 1017.9 454.4 1005.2 450.1 993.7 458.4 C 982.3 466.7 968.4 495.5 953.8 497.5 C 939.3 499.4 917.0 483.5 906.6 470.0 C 896.3 456.5 884.5 429.1 891.8 416.6 C 899.1 404.1 940.3 409.4 950.4 394.9 C 960.4 380.5 943.6 336.7 952.0 329.9 C 960.3 323.1 990.3 343.6 1000.4 354.1 C 1010.5 364.6 1008.9 382.6 1012.6 393.0 C 1016.3 403.4 1020.7 407.5 1022.4 416.6 Z" fill="#3b2bf0"/>
<path d="M 789.4 692.1 C 787.2 709.8 794.8 724.5 785.3 737.0 C 775.8 749.4 746.2 770.4 732.5 766.7 C 718.7 762.9 709.7 731.7 702.8 714.5 C 695.9 697.4 684.5 673.5 691.0 663.9 C 697.4 654.3 723.6 662.7 741.5 657.2 C 759.5 651.6 790.7 624.6 798.7 630.4 C 806.6 636.2 791.7 674.3 789.4 692.1 Z" fill="#ff5a1e"/>
<path d="M 933.9 216.7 C 931.3 226.3 917.7 226.3 909.0 235.3 C 900.3 244.2 892.3 269.7 881.9 270.4 C 871.6 271.1 850.5 251.0 847.1 239.4 C 843.6 227.8 854.3 208.6 861.2 200.9 C 868.2 193.1 878.1 196.6 888.7 192.8 C 899.4 189.0 917.5 174.0 925.1 178.0 C 932.6 182.0 936.6 207.2 933.9 216.7 Z" fill="#ffc4dd"/>
<path d="M 789.9 808.6 C 794.8 820.7 792.0 848.9 782.1 855.6 C 772.2 862.3 744.3 847.5 730.5 848.9 C 716.7 850.3 708.3 865.7 699.5 863.8 C 690.6 861.9 687.2 846.9 677.3 837.7 C 667.5 828.5 641.3 818.9 640.4 808.6 C 639.6 798.3 663.2 787.6 672.2 775.8 C 681.2 763.9 682.9 743.7 694.3 737.5 C 705.6 731.2 730.5 730.7 740.3 738.2 C 750.1 745.7 744.7 771.0 753.0 782.7 C 761.3 794.4 785.1 796.4 789.9 808.6 Z" fill="#ff2e6e"/>
<path d="M 1283.3 434.5 C 1282.8 448.2 1245.8 463.7 1231.0 474.0 C 1216.3 484.2 1209.6 490.7 1194.9 496.1 C 1180.1 501.5 1161.9 510.2 1142.6 506.3 C 1123.2 502.4 1083.8 489.1 1078.8 472.8 C 1073.8 456.5 1099.4 422.4 1112.6 408.5 C 1125.8 394.7 1143.9 398.3 1158.1 389.6 C 1172.3 380.9 1185.1 355.9 1197.8 356.3 C 1210.5 356.7 1220.1 379.2 1234.4 392.2 C 1248.7 405.3 1283.9 420.9 1283.3 434.5 Z" fill="#ffc4dd"/>
<path d="M 879.2 593.9 C 875.3 607.2 844.1 614.4 831.4 622.2 C 818.7 630.0 816.0 637.4 803.1 640.9 C 790.1 644.5 761.6 651.2 753.5 643.4 C 745.5 635.5 751.6 607.3 754.6 593.9 C 757.7 580.4 763.9 571.4 772.0 562.8 C 780.1 554.2 789.3 545.8 803.1 542.4 C 816.8 539.0 841.9 533.8 854.6 542.3 C 867.3 550.9 883.0 580.5 879.2 593.9 Z" fill="#ff2e6e"/>
<path d="M 629.4 1145.6 C 629.2 1154.7 578.4 1156.7 566.9 1172.5 C 555.5 1188.2 569.9 1235.3 560.7 1240.2 C 551.5 1245.0 522.8 1213.1 511.8 1201.6 C 500.7 1190.2 506.6 1180.8 494.4 1171.5 C 482.1 1162.2 438.2 1154.3 438.3 1145.6 C 438.3 1137.0 484.0 1135.0 494.4 1119.8 C 504.7 1104.6 492.4 1056.2 500.3 1054.4 C 508.2 1052.6 530.6 1098.3 541.9 1108.9 C 553.1 1119.6 553.3 1112.0 567.9 1118.1 C 582.4 1124.2 629.5 1136.6 629.4 1145.6 Z" fill="#ccff00"/>
<path d="M 1351.1 1122.7 C 1349.1 1130.9 1342.6 1139.0 1336.9 1142.4 C 1331.2 1145.8 1323.4 1142.3 1317.1 1143.1 C 1310.8 1144.0 1306.0 1148.5 1299.3 1147.4 C 1292.6 1146.2 1279.8 1142.2 1276.7 1136.1 C 1273.6 1130.1 1278.7 1120.0 1280.8 1110.8 C 1283.0 1101.7 1283.0 1085.5 1289.6 1081.3 C 1296.1 1077.1 1310.2 1083.6 1320.0 1085.6 C 1329.9 1087.6 1343.4 1087.1 1348.6 1093.3 C 1353.7 1099.5 1353.0 1114.6 1351.1 1122.7 Z" fill="#8fefc9"/>
</svg>